<svg width="261" height="82" viewBox="0 0 261 82" fill="none" xmlns="http://www.w3.org/2000/svg">
<path d="M93.9147 41.8718C92.5506 41.8718 91.2123 41.6154 90.0027 41.077C88.793 40.5898 87.7378 39.8462 86.8113 38.9231C85.8847 38.0257 85.1641 36.9488 84.6493 35.7693C84.1089 34.5385 83.8772 33.2308 83.8772 31.9231C83.8772 30.5898 84.1346 29.2821 84.6493 28.077C85.1641 26.8975 85.8847 25.8462 86.837 24.9231C87.7635 24 88.8702 23.2821 90.0541 22.7693C91.2895 22.2564 92.6278 22 93.9662 22C96.0509 22 98.0069 22.6411 99.6541 23.7949C100.22 24.1795 100.349 24.9487 99.9372 25.5129C99.5511 26.0513 98.779 26.2052 98.2385 25.7949C97.0032 24.8975 95.5361 24.4359 93.9662 24.4359C92.9367 24.4359 91.9329 24.6411 90.9807 25.0513C90.0799 25.4103 89.2563 25.9744 88.5614 26.6667C87.8407 27.3846 87.3003 28.1539 86.8885 29.0513C86.5024 29.9744 86.2965 30.9231 86.2965 31.9231C86.2965 32.9231 86.5024 33.8975 86.8885 34.7949C87.2745 35.6923 87.815 36.4872 88.5356 37.1795C89.9769 38.6154 91.8815 39.4103 93.9147 39.4103C94.9957 39.4103 96.0509 39.1795 97.0032 38.7436C97.7753 38.3846 98.5216 37.8975 99.1393 37.2821V32.2052C99.1393 31.5129 99.6798 30.9744 100.375 30.9744C101.07 30.9744 101.61 31.5129 101.61 32.2052V37.7949C101.61 38.077 101.481 38.3846 101.301 38.5898C100.375 39.5898 99.2938 40.3846 98.0584 40.9487C96.72 41.5641 95.3302 41.8718 93.9147 41.8718Z" fill="#119647"/>
<path d="M116.615 41.4103C116.049 41.4103 115.534 41 115.405 40.4103C115.122 38.9231 114.659 37.7436 114.015 36.8206C113.552 36.1282 112.96 35.6411 112.317 35.3334C111.802 35.077 111.287 34.9744 110.901 34.9488C110.592 34.9488 110.232 34.9744 109.897 34.9744C109.28 34.9744 108.739 34.4872 108.688 33.8462C108.611 33.2308 109.048 32.6411 109.666 32.5641C109.769 32.5385 110.232 32.4359 110.901 32.4872C112.162 32.4103 113.166 32.1539 113.912 31.7436C114.993 31.1282 115.508 30.1795 115.508 28.7436C115.508 27.7693 115.302 26.9744 114.968 26.3334C114.71 25.8718 114.298 25.5129 113.835 25.2052C112.96 24.718 112.059 24.6923 111.982 24.6923H105.934V40.1795C105.934 40.8462 105.393 41.4103 104.699 41.4103C104.029 41.4103 103.463 40.8462 103.463 40.1795V23.4616C103.463 22.7693 104.029 22.2308 104.699 22.2308H111.956C112.059 22.2308 112.651 22.2308 113.398 22.4359C114.479 22.6923 115.431 23.2052 116.152 23.9488C116.692 24.4872 117.13 25.1539 117.413 25.8975C117.722 26.718 117.902 27.6667 117.902 28.718C117.902 31 116.924 32.7949 115.096 33.8462C114.968 33.9231 114.839 33.9744 114.71 34.0513C115.148 34.4103 115.534 34.8205 115.92 35.3077C116.795 36.5129 117.413 38.0513 117.773 39.9231C117.902 40.5898 117.49 41.2308 116.821 41.359C116.769 41.3847 116.692 41.4103 116.615 41.4103Z" fill="#119647"/>
<path d="M134.065 40.2052C134.065 40.8975 133.524 41.4359 132.829 41.4359H121.145C120.475 41.4359 119.909 40.8975 119.909 40.2052V23.4872C119.909 22.7949 120.475 22.2564 121.145 22.2564H132.598C133.292 22.2564 133.833 22.7949 133.833 23.4872C133.833 24.1795 133.292 24.718 132.598 24.718H122.38V30.5898H131.439C132.134 30.5898 132.675 31.1539 132.675 31.8205C132.675 32.5128 132.134 33.0513 131.439 33.0513H122.38V39.0257H132.829C133.524 38.9744 134.065 39.5128 134.065 40.2052Z" fill="#119647"/>
<path d="M150.15 40.2052C150.15 40.8975 149.61 41.4359 148.915 41.4359H137.23C136.561 41.4359 135.995 40.8975 135.995 40.2052V23.4872C135.995 22.7949 136.561 22.2564 137.23 22.2564H148.683C149.378 22.2564 149.919 22.7949 149.919 23.4872C149.919 24.1795 149.378 24.718 148.683 24.718H138.466V30.5898H147.499C148.194 30.5898 148.735 31.1539 148.735 31.8205C148.735 32.5128 148.194 33.0513 147.499 33.0513H138.44V39.0257H148.915C149.61 38.9744 150.15 39.5128 150.15 40.2052Z" fill="#119647"/>
<path d="M167.78 41.3334C167.291 41.4872 166.674 41.4103 166.365 41.0257L154.551 26.8718V40.2308C154.551 40.9231 154.011 41.4616 153.316 41.4616C152.621 41.4616 152.081 40.9231 152.081 40.2308V23.5129C152.081 23 152.389 22.5385 152.878 22.359C153.367 22.1795 153.908 22.3334 154.217 22.718L166.056 36.8462V23.4616C166.056 22.7693 166.596 22.2308 167.291 22.2308C167.96 22.2308 168.527 22.7693 168.527 23.4616V40.2308C168.527 40.7436 168.295 41.1795 167.78 41.3334Z" fill="#119647"/>
<path d="M194.933 36.5385C194.701 39.5641 192.411 41.4103 189.168 41.4103H180.752C180.443 41.4103 180.108 41.2821 179.902 41.077C179.671 40.8462 179.542 40.5385 179.542 40.2052V23.4872C179.542 22.7949 180.108 22.2564 180.777 22.2564H188.01C191.201 22.2564 193.44 23.6923 193.852 26.6411C194.161 28.9231 193.183 30.3334 192.05 31.1795C193.646 31.7436 195.164 33.7949 194.933 36.5385ZM192.488 36.3334C192.745 33.9487 191.407 32.7693 189.013 32.7693H188.936L187.032 32.7949H187.006C186.337 32.7949 185.796 32.2308 185.77 31.5641C185.77 30.8718 186.337 30.3334 187.006 30.3334L188.859 30.3077C190.66 30.1026 191.613 28.8975 191.407 26.9231C191.201 25.3334 190.069 24.6923 187.984 24.6923H181.987V38.9487H189.168C191.149 38.9744 192.333 38.1282 192.488 36.3334Z" fill="#119647"/>
<path d="M211.044 40.2052C211.044 40.8975 210.504 41.4359 209.809 41.4359H198.124C197.455 41.4359 196.889 40.8975 196.889 40.2052V23.4872C196.889 22.7949 197.455 22.2564 198.124 22.2564H209.577C210.272 22.2564 210.813 22.7949 210.813 23.4872C210.813 24.1795 210.272 24.718 209.577 24.718H199.36V30.5898H208.419C209.114 30.5898 209.654 31.1539 209.654 31.8205C209.654 32.5128 209.114 33.0513 208.419 33.0513H199.36V39.0257H209.835C210.504 38.9744 211.044 39.5128 211.044 40.2052Z" fill="#119647"/>
<path d="M230.038 41.3334C229.472 41.5898 228.751 41.3846 228.391 40.718L226.692 36.9744C225.097 36.5898 223.501 36.5641 221.983 36.8975C220.747 37.1539 219.512 37.6154 218.328 38.3334C217.092 39.077 215.831 40.0769 214.905 41C214.442 41.4616 213.824 41.6154 213.309 41.2821C212.769 40.9487 212.846 40.2564 213.078 39.6923L220.799 22.9744C221.03 22.5385 221.442 22.2564 221.931 22.2564C222.394 22.2564 222.858 22.5385 223.038 22.9744L230.63 39.6923C230.913 40.3334 230.63 41.0257 230.038 41.3334ZM221.905 26.4103L217.221 36.3846C218.508 35.6667 220.232 35 221.596 34.718C222.909 34.4359 224.273 34.3846 225.611 34.4872L221.905 26.4103Z" fill="#119647"/>
<path d="M248.234 41.3334C247.745 41.4872 247.128 41.4103 246.819 41.0257L235.006 26.8718V40.2308C235.006 40.9231 234.465 41.4616 233.77 41.4616C233.075 41.4616 232.535 40.9231 232.535 40.2308V23.5129C232.535 23 232.844 22.5385 233.333 22.359C233.822 22.1795 234.362 22.3334 234.671 22.718L246.51 36.8462V23.4616C246.51 22.7693 247.05 22.2308 247.745 22.2308C248.415 22.2308 248.981 22.7693 248.981 23.4616V40.2308C249.007 40.7436 248.749 41.1795 248.234 41.3334Z" fill="#119647"/>
<path d="M94.1463 50.5129C93.8118 50.1539 93.3742 49.8462 92.8337 49.6154C92.2933 49.3846 91.6756 49.2821 90.9807 49.2821C89.9512 49.2821 89.2048 49.4872 88.7415 49.8462C88.2783 50.2308 88.0466 50.7436 88.0466 51.4103C88.0466 51.7693 88.0981 52.0513 88.2268 52.2564C88.3555 52.4872 88.5356 52.6667 88.793 52.8205C89.0504 52.9744 89.385 53.1282 89.7968 53.2308C90.2086 53.359 90.6976 53.4616 91.238 53.5898C91.8557 53.718 92.422 53.8718 92.911 54.0257C93.4 54.1795 93.8375 54.3847 94.1721 54.6411C94.5324 54.8975 94.7898 55.1795 94.9699 55.5385C95.1501 55.8975 95.253 56.3077 95.253 56.8462C95.253 57.3846 95.1501 57.8462 94.9442 58.2308C94.7383 58.6154 94.4552 58.9488 94.0691 59.2052C93.7088 59.4616 93.2713 59.6667 92.7565 59.7693C92.2418 59.8718 91.6756 59.9488 91.0836 59.9488C89.282 59.9488 87.7378 59.3847 86.4252 58.2821L86.9914 57.359C87.1973 57.5641 87.4547 57.7693 87.7378 57.9744C88.0209 58.1795 88.3555 58.3334 88.6901 58.4872C89.0504 58.6411 89.4107 58.7436 89.8225 58.8205C90.2343 58.8975 90.6461 58.9488 91.0836 58.9488C92.0102 58.9488 92.7308 58.7949 93.2455 58.4616C93.7603 58.1282 94.0176 57.6411 94.0176 56.9488C94.0176 56.5898 93.9404 56.2821 93.786 56.0513C93.6316 55.8205 93.4257 55.5898 93.1168 55.4103C92.8337 55.2308 92.4477 55.077 92.0359 54.9488C91.6241 54.8205 91.0836 54.6923 90.5174 54.5641C89.8997 54.4359 89.385 54.2821 88.9217 54.1282C88.4584 53.9744 88.0724 53.7949 87.7635 53.5641C87.4547 53.3334 87.2231 53.0513 87.0429 52.7436C86.8885 52.4359 86.8113 52.0257 86.8113 51.5641C86.8113 51.0257 86.9142 50.5641 87.1201 50.1539C87.326 49.7436 87.6091 49.3846 87.9694 49.1026C88.3297 48.8205 88.7673 48.6154 89.282 48.4616C89.771 48.3077 90.3372 48.2308 90.9549 48.2308C91.727 48.2308 92.4219 48.359 93.0139 48.5898C93.6059 48.8205 94.1721 49.1539 94.6611 49.5641L94.1463 50.5129Z" fill="#119647"/>
<path d="M97.2605 59.8975V48.359H102.048C102.537 48.359 103 48.4616 103.437 48.6667C103.849 48.8718 104.21 49.1539 104.518 49.4872C104.827 49.8205 105.059 50.2052 105.239 50.6411C105.419 51.077 105.496 51.5129 105.496 51.9488C105.496 52.4359 105.419 52.8718 105.239 53.3334C105.059 53.7949 104.853 54.1539 104.544 54.4872C104.261 54.8205 103.901 55.1026 103.489 55.3077C103.077 55.5129 102.64 55.6154 102.125 55.6154H98.3672V59.8718L97.2605 59.8975ZM98.4187 54.6411H102.125C102.459 54.6411 102.768 54.5641 103.051 54.4103C103.334 54.2564 103.566 54.077 103.772 53.8205C103.978 53.5641 104.132 53.3077 104.235 52.9744C104.338 52.6667 104.39 52.3334 104.39 51.9744C104.39 51.6154 104.338 51.2821 104.21 50.9488C104.081 50.6411 103.926 50.359 103.695 50.1026C103.489 49.8718 103.232 49.6667 102.948 49.5385C102.665 49.4103 102.356 49.3334 102.048 49.3334H98.4444L98.4187 54.6411Z" fill="#119647"/>
<path d="M112.085 59.9744C111.287 59.9744 110.541 59.8205 109.872 59.4872C109.203 59.1539 108.636 58.718 108.147 58.1795C107.658 57.641 107.298 57 107.041 56.3077C106.783 55.6154 106.655 54.8718 106.655 54.1539C106.655 53.3846 106.783 52.641 107.066 51.9487C107.349 51.2564 107.736 50.6154 108.225 50.0769C108.714 49.5385 109.28 49.1026 109.949 48.7949C110.618 48.4872 111.339 48.3077 112.111 48.3077C112.909 48.3077 113.655 48.4872 114.324 48.8205C114.993 49.1539 115.56 49.6154 116.049 50.1539C116.512 50.718 116.898 51.3333 117.155 52.0257C117.413 52.718 117.541 53.4359 117.541 54.1539C117.541 54.9231 117.413 55.6667 117.13 56.359C116.846 57.0513 116.46 57.6923 115.997 58.2308C115.508 58.7693 114.942 59.2051 114.273 59.5128C113.552 59.8205 112.857 59.9744 112.085 59.9744ZM107.787 54.1282C107.787 54.7693 107.89 55.359 108.096 55.9487C108.302 56.5385 108.585 57.0513 108.971 57.4872C109.357 57.9487 109.795 58.2821 110.335 58.5641C110.85 58.8205 111.442 58.9744 112.085 58.9744C112.729 58.9744 113.32 58.8462 113.861 58.5641C114.401 58.2821 114.839 57.9231 115.225 57.4616C115.585 57 115.868 56.4872 116.074 55.9231C116.28 55.359 116.383 54.7692 116.383 54.1795C116.383 53.5641 116.28 52.9487 116.074 52.359C115.868 51.7692 115.56 51.2564 115.174 50.8205C114.787 50.3846 114.35 50.0257 113.809 49.7436C113.295 49.4872 112.703 49.3333 112.085 49.3333C111.442 49.3333 110.85 49.4616 110.309 49.7436C109.769 50.0257 109.331 50.3846 108.945 50.8462C108.585 51.3077 108.302 51.8205 108.096 52.3846C107.89 52.9487 107.787 53.5385 107.787 54.1282Z" fill="#119647"/>
<path d="M119.652 59.8975V48.359H124.542C125.031 48.359 125.494 48.4616 125.932 48.6667C126.343 48.8718 126.704 49.1539 127.013 49.4872C127.321 49.8205 127.553 50.2052 127.733 50.6411C127.913 51.077 127.991 51.5129 127.991 51.9488C127.991 52.359 127.939 52.7693 127.81 53.1539C127.682 53.5385 127.502 53.8975 127.296 54.2052C127.064 54.5129 126.807 54.7693 126.498 54.9744C126.189 55.1795 125.829 55.3334 125.443 55.4103L128.274 59.8718H126.987L124.259 55.6154H120.836V59.8718L119.652 59.8975ZM120.81 54.6411H124.593C124.928 54.6411 125.237 54.5641 125.52 54.4103C125.803 54.2564 126.035 54.077 126.24 53.8205C126.446 53.5641 126.601 53.2821 126.704 52.9744C126.807 52.6667 126.858 52.3334 126.858 51.9744C126.858 51.6154 126.807 51.2821 126.678 50.9744C126.549 50.6667 126.395 50.3846 126.163 50.1282C125.957 49.8975 125.7 49.6923 125.417 49.5641C125.134 49.4359 124.825 49.359 124.516 49.359H120.836L120.81 54.6411Z" fill="#119647"/>
<path d="M138.337 49.359H134.219V59.8975H133.087V49.359H128.969V48.359H138.363L138.337 49.359Z" fill="#119647"/>
<path d="M146.83 50.5129C146.496 50.1539 146.058 49.8462 145.518 49.6154C144.977 49.3846 144.359 49.2821 143.665 49.2821C142.635 49.2821 141.889 49.4872 141.425 49.8462C140.962 50.2308 140.731 50.7436 140.731 51.4103C140.731 51.7693 140.782 52.0513 140.911 52.2564C141.039 52.4872 141.22 52.6667 141.477 52.8205C141.734 52.9744 142.069 53.1282 142.481 53.2308C142.892 53.359 143.381 53.4616 143.922 53.5898C144.54 53.718 145.106 53.8718 145.595 54.0257C146.084 54.1795 146.521 54.3847 146.856 54.6411C147.216 54.8975 147.474 55.1795 147.654 55.5385C147.834 55.8975 147.937 56.3077 147.937 56.8462C147.937 57.3846 147.834 57.8462 147.628 58.2308C147.422 58.6154 147.139 58.9488 146.753 59.2052C146.393 59.4616 145.955 59.6667 145.44 59.7693C144.926 59.8718 144.359 59.9488 143.767 59.9488C141.966 59.9488 140.422 59.3847 139.109 58.2821L139.675 57.359C139.881 57.5641 140.139 57.7693 140.422 57.9744C140.705 58.1795 141.039 58.3334 141.374 58.4872C141.734 58.6411 142.095 58.7436 142.506 58.8205C142.918 58.8975 143.33 58.9488 143.767 58.9488C144.694 58.9488 145.415 58.7949 145.929 58.4616C146.444 58.1282 146.702 57.6411 146.702 56.9488C146.702 56.5898 146.624 56.2821 146.47 56.0513C146.315 55.8205 146.11 55.5898 145.801 55.4103C145.518 55.2308 145.132 55.077 144.72 54.9488C144.308 54.8205 143.767 54.6923 143.201 54.5641C142.584 54.4359 142.069 54.2821 141.606 54.1282C141.142 53.9744 140.756 53.7949 140.447 53.5641C140.139 53.3334 139.907 53.0513 139.727 52.7436C139.572 52.4359 139.495 52.0257 139.495 51.5641C139.495 51.0257 139.598 50.5641 139.804 50.1539C140.01 49.7436 140.293 49.3846 140.653 49.1026C141.014 48.8205 141.451 48.6154 141.966 48.4616C142.455 48.3077 143.021 48.2308 143.639 48.2308C144.411 48.2308 145.106 48.359 145.698 48.5898C146.29 48.8205 146.856 49.1539 147.345 49.5641L146.83 50.5129Z" fill="#119647"/>
<path d="M164.383 59.8975V50.4359L160.162 57.7693H159.493L155.272 50.4359V59.8975H154.14V48.359H155.323L159.827 56.2564L164.383 48.359H165.541V59.8975H164.383Z" fill="#119647"/>
<path d="M172.027 48.359H172.979L177.792 59.8975H176.582L175.09 56.2821H169.891L168.398 59.8975H167.163L172.027 48.359ZM174.832 55.3846L172.49 49.6923L170.122 55.3846H174.832Z" fill="#119647"/>
<path d="M179.439 59.8975V48.359H184.329C184.818 48.359 185.281 48.4616 185.719 48.6667C186.131 48.8718 186.491 49.1539 186.8 49.4872C187.109 49.8205 187.34 50.2052 187.521 50.6411C187.701 51.077 187.778 51.5129 187.778 51.9488C187.778 52.359 187.726 52.7693 187.598 53.1539C187.469 53.5385 187.289 53.8975 187.083 54.2052C186.851 54.5129 186.594 54.7693 186.285 54.9744C185.976 55.1795 185.616 55.3334 185.23 55.4103L188.061 59.8718H186.774L184.046 55.6154H180.623V59.8718L179.439 59.8975ZM180.597 54.6411H184.381C184.715 54.6411 185.024 54.5641 185.307 54.4103C185.59 54.2564 185.822 54.077 186.028 53.8205C186.234 53.5641 186.388 53.2821 186.491 52.9744C186.594 52.6667 186.646 52.3334 186.646 51.9744C186.646 51.6154 186.594 51.2821 186.465 50.9744C186.337 50.6667 186.182 50.3846 185.951 50.1282C185.745 49.8975 185.487 49.6923 185.204 49.5641C184.921 49.4359 184.612 49.359 184.303 49.359H180.623L180.597 54.6411Z" fill="#119647"/>
<path d="M190.094 59.8975V48.3846H191.227V55.077L197.61 48.359H198.871L194.135 53.4359L199.102 59.8975H197.841L193.414 54.1026L191.227 56.359V59.8975H190.094Z" fill="#119647"/>
<path d="M208.368 58.8975V59.8975H200.595V48.359H208.239V49.359H201.753V53.5129H207.415V54.4616H201.753V58.8718L208.368 58.8975Z" fill="#119647"/>
<path d="M218.74 49.359H214.622V59.8975H213.489V49.359H209.371V48.359H218.765L218.74 49.359Z" fill="#119647"/>
<path d="M220.464 59.8975V48.359H221.596V59.8975H220.464Z" fill="#119647"/>
<path d="M225.637 50.4616V59.8718H224.505V48.3334H225.38L233.049 57.9231V48.3334H234.182V59.8462H233.178L225.637 50.4616Z" fill="#119647"/>
<path d="M245.455 58.2052C244.374 59.3846 243.138 59.9744 241.749 59.9744C240.977 59.9744 240.256 59.7949 239.587 59.4616C238.918 59.1282 238.351 58.6923 237.862 58.1282C237.373 57.5641 237.013 56.9487 236.73 56.2564C236.447 55.5641 236.318 54.8462 236.318 54.1026C236.318 53.3334 236.447 52.5898 236.73 51.8975C236.987 51.2052 237.373 50.5641 237.837 50.0257C238.326 49.4872 238.892 49.0513 239.535 48.7436C240.179 48.4359 240.899 48.2564 241.671 48.2564C242.238 48.2564 242.752 48.3077 243.216 48.4359C243.679 48.5641 244.091 48.7436 244.451 48.9487C244.811 49.1795 245.12 49.4359 245.403 49.7436C245.661 50.0513 245.892 50.3846 246.072 50.7693L245.197 51.359C244.811 50.6411 244.322 50.1282 243.705 49.7949C243.087 49.4616 242.418 49.2821 241.646 49.2821C241.002 49.2821 240.436 49.4103 239.921 49.6923C239.407 49.9744 238.969 50.3334 238.609 50.7693C238.248 51.2308 237.965 51.7436 237.759 52.3077C237.553 52.8975 237.476 53.4872 237.476 54.1026C237.476 54.7436 237.579 55.359 237.811 55.9487C238.042 56.5385 238.351 57.0513 238.737 57.4872C239.123 57.9231 239.587 58.2821 240.127 58.5385C240.668 58.7949 241.234 58.9231 241.852 58.9231C242.521 58.9231 243.138 58.7693 243.756 58.4616C244.348 58.1539 244.94 57.6667 245.481 57V55.1026H242.907V54.2308H246.433V59.8975H245.481L245.455 58.2052Z" fill="#119647"/>
<path d="M13.6921 51.1026C12.6112 47.9231 12.0192 44.5385 12.0192 41C12.0192 23.718 26.0974 9.69232 43.4442 9.69232H68.435C71.9867 9.69232 74.8692 12.5641 74.8692 16.1026V25.8974H58.3718V24.1539C58.3718 23.0257 57.4452 22.1026 56.3128 22.1026H42.1831C37.9622 22.1026 34.3333 24.6667 32.8148 28.3333C32.4802 29.1282 32.2486 30 32.1199 30.8974C32.0684 31.3333 32.0427 31.7692 32.0427 32.2051C32.0427 35.8205 33.9472 39 36.8298 40.7949L37.4475 41.1539L41.7971 43.6667L48.4372 47.4872C48.5144 47.5385 48.5917 47.5641 48.6689 47.6154C49.1579 47.9487 49.4925 48.5128 49.5182 49.1282C49.5439 50.2051 48.6174 51.1026 47.5107 51.1026H32.6089H13.6921Z" fill="#FDE008"/>
<path d="M58.3975 30.8975H44.5252C43.47 30.8975 42.5692 31.718 42.5435 32.7436C42.5177 33.4616 42.878 34.0769 43.4443 34.4359L43.5729 34.5128L50.2903 38.3846L54.4083 40.7436L55.5407 41.3846C58.2688 43.2052 60.0704 46.2821 60.0704 49.7949C60.0704 50.2308 60.0447 50.6923 59.9932 51.1026C59.8645 52 59.6329 52.8718 59.2983 53.6667C57.7798 57.3077 54.1509 59.8975 49.93 59.8975H34.7451C33.6127 59.8975 32.6862 58.9744 32.6862 57.8462V56.1026H15.957C21.3103 65.7693 31.6309 72.3077 43.4957 72.3077H68.4865C72.0382 72.3077 74.9207 69.4359 74.9207 65.8975V30.8975H58.3975Z" fill="#19914A"/>
</svg>
